# xmcd CD database file
#
# Track frame offsets:
#	150
#	20700
#	39750
#	71717
#
# Disc length: 1769 seconds
#
# Revision: 0
# Processed by: cddbd v1.5.1PL0 Copyright (c) Steve Scherf et al.
# Submitted via: CDex 1.51
#
DISCID=2d06e704
DTITLE=LINDBERG - You Were There (Single)
DYEAR=2002
DGENRE=Pop
TTITLE0=You Were There (Single Version)
TTITLE1=Kelly
TTITLE2=You Were There (Instrumental)
TTITLE3=(VIDEO)
EXTD=YEAR: 2002
EXTT0=
EXTT1=
EXTT2=
EXTT3=
PLAYORDER=
